:FULLY-SPECIFIED
:FORCE-ALL-JOINTS-BE-3DOF
:DEGREES
747
root 3.53521 18.7178 13.2743 -165.059 6.24025 -172.851
lfemur -35.3859 4.9944 -4.79618
ltibia 60.281 -0 0
lfoot -9.66086 8.18067 -2.13548
ltoes 26.7605 -0 0
rfemur -22.7739 -13.9321 12.1351
rtibia 71.809 -0 0
rfoot -0.560821 -28.4551 1.53228
rtoes 7.56329 -0 0
lowerback 3.43748 2.17128 -1.60946
upperback -1.1814 2.77639 -2.90298
thorax -3.00796 1.39111 -2.09854
lowerneck -5.98258 -6.73467 -1.70298
upperneck -1.68942 -8.87905 5.40389
head 0.821469 -4.36447 1.73637
lclavicle -5.80215e-15 -9.68711e-15 -2.07726e-31
lhumerus -31.8516 -25.1518 59.587
lradius 58.6859 -0 0
lwrist 16.6599 0 0
lhand -20.6951 -4.91274 -0.0148722
lfingers 7.12502 -0 0
lthumb 5.66869 24.9887 -0.0146186
rclavicle -5.80215e-15 -9.68711e-15 -2.07726e-31
rhumerus -8.82206 27.2638 -64.4076
rradius 89.1109 -0 0
rwrist -0.975853 0 0
rhand -24.7171 -26.7759 0.168766
rfingers 7.12502 -0 0
rthumb 1.78467 -56.7337 0.163401
748
root 3.46126 18.6129 13.4859 -164.903 9.79482 -172.629
lfemur -35.518 5.67917 -5.32465
ltibia 59.9704 -0 0
lfoot -10.2817 8.80687 -2.12177
ltoes 26.6145 -0 0
rfemur -22.4319 -14.4514 12.6019
rtibia 71.0475 -0 0
rfoot -1.3665 -28.8013 1.52227
rtoes 6.31022 -0 0
lowerback 3.33691 2.27818 -1.60347
upperback -1.17989 2.923 -2.95253
thorax -2.94375 1.46442 -2.15778
lowerneck -5.95148 -6.75042 -1.67861
upperneck -1.7403 -8.89712 5.4222
head 0.800455 -4.37315 1.73939
lclavicle -6.18039e-15 -1.02008e-14 -1.93639e-31
lhumerus -33.0442 -24.8851 61.2215
lradius 59.192 -0 0
lwrist 16.4269 0 0
lhand -20.6516 -4.97389 -0.0147692
lfingers 7.12502 -0 0
lthumb 5.71069 24.9265 -0.0145172
rclavicle -6.18039e-15 -1.02008e-14 -1.93639e-31
rhumerus -9.14049 28.3659 -65.9403
rradius 88.7333 -0 0
rwrist -0.651946 0 0
rhand -24.6159 -26.4741 0.16766
rfingers 7.12502 -0 0
rthumb 1.88247 -56.4312 0.16233
749
root 3.38752 18.5083 13.697 -164.731 13.3383 -172.395
lfemur -35.6562 6.36036 -5.85354
ltibia 59.6611 -0 0
lfoot -10.9005 9.43096 -2.1013
ltoes 26.4687 -0 0
rfemur -22.0944 -14.9716 13.0651
rtibia 70.2876 -0 0
rfoot -2.16964 -29.146 1.50743
rtoes 5.06057 -0 0
lowerback 3.23666 2.38475 -1.59766
upperback -1.17848 3.06914 -3.00192
thorax -2.8798 1.53756 -2.21676
lowerneck -5.92048 -6.7661 -1.65429
upperneck -1.79103 -8.91507 5.44043
head 0.779505 -4.38177 1.74239
lclavicle -6.54817e-15 -1.07153e-14 -1.76726e-31
lhumerus -34.2215 -24.5889 62.841
lradius 59.6968 -0 0
lwrist 16.1948 0 0
lhand -20.6082 -5.03479 -0.0146187
lfingers 7.12502 -0 0
lthumb 5.75253 24.8645 -0.0143693
rclavicle -6.54817e-15 -1.07153e-14 -1.76726e-31
rhumerus -9.49502 29.4566 -67.4915
rradius 88.3568 -0 0
rwrist -0.32904 0 0
rhand -24.5151 -26.1734 0.166033
rfingers 7.12502 -0 0
rthumb 1.97977 -56.1298 0.160754
750
root 3.31409 18.4041 13.9071 -164.542 16.8664 -172.147
lfemur -35.8002 7.03705 -6.38234
ltibia 59.3533 -0 0
lfoot -11.5162 10.0521 -2.07418
ltoes 26.3232 -0 0
rfemur -21.7618 -15.492 13.5244
rtibia 69.5303 -0 0
rfoot -2.96924 -29.4886 1.48785
rtoes 3.81589 -0 0
lowerback 3.13687 2.49086 -1.59204
upperback -1.1772 3.21465 -3.05109
thorax -2.81618 1.61044 -2.2754
lowerneck -5.88962 -6.78169 -1.63005
upperneck -1.84152 -8.93288 5.45858
head 0.758642 -4.39033 1.74536
lclavicle -6.90415e-15 -1.12293e-14 -1.5717e-31
lhumerus -35.3812 -24.2642 64.4426
lradius 60.1994 -0 0
lwrist 15.9638 0 0
lhand -20.5651 -5.09536 -0.0144217
lfingers 7.12502 -0 0
lthumb 5.79416 24.8028 -0.0141757
rclavicle -6.90415e-15 -1.12293e-14 -1.5717e-31
rhumerus -9.88594 30.5336 -69.061
rradius 87.9819 -0 0
rwrist -0.00753258 0 0
rhand -24.415 -25.8741 0.163893
rfingers 7.12502 -0 0
rthumb 2.07645 -55.8297 0.158682
751
root 3.24105 18.3005 14.116 -164.334 20.3747 -171.883
lfemur -35.9498 7.70835 -6.91051
ltibia 59.0473 -0 0
lfoot -12.1282 10.6694 -2.04054
ltoes 26.1782 -0 0
rfemur -21.4344 -16.0119 13.9791
rtibia 68.7766 -0 0
rfoot -3.76428 -29.8288 1.46363
rtoes 2.57769 -0 0
lowerback 3.03764 2.59639 -1.5866
upperback -1.17602 3.35934 -3.09999
thorax -2.75297 1.68298 -2.33365
lowerneck -5.85892 -6.79717 -1.60592
upperneck -1.89174 -8.95054 5.47661
head 0.737894 -4.39883 1.74831
lclavicle -7.24698e-15 -1.17417e-14 -1.35196e-31
lhumerus -36.5211 -23.9124 66.0238
lradius 60.6993 -0 0
lwrist 15.7342 0 0
lhand -20.5223 -5.15552 -0.0141792
lfingers 7.12502 -0 0
lthumb 5.8355 24.7415 -0.0139372
rclavicle -7.24698e-15 -1.17417e-14 -1.35196e-31
rhumerus -10.3134 31.595 -70.648
rradius 87.609 -0 0
rwrist 0.312181 0 0
rhand -24.3157 -25.5766 0.161251
rfingers 7.12502 -0 0
rthumb 2.1724 -55.5315 0.156124
752
root 3.1685 18.1976 14.3236 -164.105 23.8588 -171.6
lfemur -36.1048 8.37336 -7.43749
ltibia 58.7436 -0 0
lfoot -12.7354 11.282 -2.00055
ltoes 26.0337 -0 0
rfemur -21.1126 -16.5304 14.4289
rtibia 68.0274 -0 0
rfoot -4.55375 -30.166 1.43488
rtoes 1.34752 -0 0
lowerback 2.9391 2.7012 -1.58135
upperback -1.17496 3.50302 -3.14855
thorax -2.69025 1.75509 -2.39143
lowerneck -5.82844 -6.81252 -1.58192
upperneck -1.9416 -8.96801 5.49449
head 0.717285 -4.40724 1.75122
lclavicle -7.57533e-15 -1.22514e-14 -1.11062e-31
lhumerus -37.6392 -23.5349 67.5821
lradius 61.196 -0 0
lwrist 15.5064 0 0
lhand -20.4798 -5.2152 -0.0138924
lfingers 7.12502 -0 0
lthumb 5.87651 24.6808 -0.0136552
rclavicle -7.57533e-15 -1.22514e-14 -1.11062e-31
rhumerus -10.7774 32.6386 -72.2519
rradius 87.2387 -0 0
rwrist 0.629702 0 0
rhand -24.2172 -25.2811 0.15812
rfingers 7.12502 -0 0
rthumb 2.2675 -55.2353 0.153092
753
root 3.09652 18.0956 14.5295 -163.852 27.3144 -171.296
lfemur -36.2647 9.03119 -7.96271
ltibia 58.4424 -0 0
lfoot -13.3373 11.8892 -1.95443
ltoes 25.8901 -0 0
rfemur -20.7968 -17.0468 14.8731
rtibia 67.2837 -0 0
rfoot -5.33662 -30.4997 1.40177
rtoes 0.126901 -0 0
lowerback 2.84137 2.80517 -1.57629
upperback -1.174 3.64555 -3.19671
thorax -2.62809 1.82667 -2.44868
lowerneck -5.7982 -6.82772 -1.5581
upperneck -1.99106 -8.98528 5.51222
head 0.69684 -4.41556 1.7541
lclavicle -7.88785e-15 -1.27571e-14 -8.50657e-32
lhumerus -38.7335 -23.1333 69.1151
lradius 61.6886 -0 0
lwrist 15.2804 0 0
lhand -20.4378 -5.27431 -0.0135628
lfingers 7.12502 -0 0
lthumb 5.91713 24.6206 -0.0133312
rclavicle -7.88785e-15 -1.27571e-14 -8.50657e-32
rhumerus -11.2778 33.6623 -73.8718
rradius 86.8714 -0 0
rwrist 0.944637 0 0
rhand -24.1198 -24.9882 0.154516
rfingers 7.12502 -0 0
rthumb 2.36162 -54.9416 0.149601
754
root 3.02521 17.9945 14.7334 -163.572 30.737 -170.967
lfemur -36.4294 9.68097 -8.48557
ltibia 58.1441 -0 0
lfoot -13.9328 12.49 -1.90241
ltoes 25.7473 -0 0
rfemur -20.4871 -17.5605 15.3115
rtibia 66.5465 -0 0
rfoot -6.11191 -30.8295 1.36445
rtoes -1.08264 0 0
lowerback 2.74457 2.90816 -1.57142
upperback -1.17315 3.78673 -3.24441
thorax -2.56656 1.89763 -2.50531
lowerneck -5.76826 -6.84276 -1.53447
upperneck -2.04004 -9.00233 5.52975
head 0.676585 -4.42378 1.75694
lclavicle -8.18321e-15 -1.32577e-14 -5.75351e-32
lhumerus -39.8024 -22.7092 70.6207
lradius 62.1768 -0 0
lwrist 15.0568 0 0
lhand -20.3962 -5.33279 -0.0131922
lfingers 7.12502 -0 0
lthumb 5.95729 24.5611 -0.0129668
rclavicle -8.18321e-15 -1.32577e-14 -5.75351e-32
rhumerus -11.814 34.6641 -75.5067
rradius 86.5076 -0 0
rwrist 1.25659 0 0
rhand -24.0234 -24.6981 0.150456
rfingers 7.12502 -0 0
rthumb 2.45467 -54.6508 0.14567
755
root 2.95464 17.8945 14.9352 -163.26 34.1221 -170.608
lfemur -36.5984 10.3218 -9.00546
ltibia 57.849 -0 0
lfoot -14.5211 13.0837 -1.84477
ltoes 25.6056 -0 0
rfemur -20.1839 -18.0706 15.7435
rtibia 65.8168 -0 0
rfoot -6.87859 -31.1549 1.32313
rtoes -2.27956 0 0
lowerback 2.64883 3.01004 -1.56674
upperback -1.17241 3.92639 -3.2916
thorax -2.50574 1.96789 -2.56127
lowerneck -5.73863 -6.85761 -1.51106
upperneck -2.08849 -9.01913 5.54706
head 0.656546 -4.43189 1.75973
lclavicle -8.46007e-15 -1.3752e-14 -2.8831e-32
lhumerus -40.8442 -22.2646 72.0968
lradius 62.6597 -0 0
lwrist 14.8356 0 0
lhand -20.3551 -5.39055 -0.0127826
lfingers 7.12502 -0 0
lthumb 5.99694 24.5023 -0.0125641
rclavicle -8.46007e-15 -1.3752e-14 -2.8831e-32
rhumerus -12.3856 35.6421 -77.1553
rradius 86.1476 -0 0
rwrist 1.56515 0 0
rhand -23.9283 -24.4112 0.14596
rfingers 7.12502 -0 0
rthumb 2.5465 -54.3632 0.141316
756
root 2.88492 17.7957 15.1346 -162.913 37.4653 -170.216
lfemur -36.7713 10.9529 -9.52175
ltibia 57.5574 -0 0
lfoot -15.1016 13.6695 -1.7818
ltoes 25.4651 -0 0
rfemur -19.8875 -18.5763 16.1686
rtibia 65.0955 -0 0
rfoot -7.63566 -31.4754 1.27801
rtoes -3.46234 0 0
lowerback 2.55425 3.1107 -1.56223
upperback -1.17176 4.06435 -3.3382
thorax -2.44571 2.03735 -2.61649
lowerneck -5.70938 -6.87225 -1.4879
upperneck -2.13635 -9.03567 5.56414
head 0.636747 -4.43988 1.76247
lclavicle -8.71708e-15 -1.42389e-14 6.57217e-34
lhumerus -41.8577 -21.8013 73.5417
lradius 63.1369 -0 0
lwrist 14.6173 0 0
lhand -20.3146 -5.44752 -0.0123361
lfingers 7.12502 -0 0
lthumb 6.03603 24.4443 -0.012125
rclavicle -8.71708e-15 -1.42389e-14 6.57217e-34
rhumerus -12.9915 36.5945 -78.8161
rradius 85.792 -0 0
rwrist 1.86995 0 0
rhand -23.8346 -24.1278 0.141051
rfingers 7.12502 -0 0
rthumb 2.63702 -54.0792 0.136563
757
root 2.81613 17.6983 15.3312 -162.524 40.762 -169.784
lfemur -36.9477 11.5734 -10.0338
ltibia 57.2697 -0 0
lfoot -15.6733 14.2465 -1.71383
ltoes 25.326 -0 0
rfemur -19.5981 -19.0769 16.5865
rtibia 64.3836 -0 0
rfoot -8.38213 -31.7907 1.22934
rtoes -4.62944 0 0
lowerback 2.46097 3.20999 -1.55791
upperback -1.17122 4.20044 -3.38417
thorax -2.38653 2.10592 -2.6709
lowerneck -5.68052 -6.88666 -1.46503
upperneck -2.18355 -9.05192 5.58095
head 0.617214 -4.44773 1.76515
lclavicle -8.9529e-15 -1.47171e-14 3.0514e-32
lhumerus -42.8417 -21.3213 74.9536
lradius 63.6076 -0 0
lwrist 14.4021 0 0
lhand -20.2748 -5.50362 -0.011855
lfingers 7.12502 -0 0
lthumb 6.07449 24.3871 -0.0116521
rclavicle -8.9529e-15 -1.47171e-14 3.0514e-32
rhumerus -13.6306 37.5195 -80.4873
rradius 85.4412 -0 0
rwrist 2.17056 0 0
rhand -23.7424 -23.8484 0.135754
rfingers 7.12502 -0 0
rthumb 2.7261 -53.799 0.131434
758
root 2.74835 17.6023 15.525 -162.087 44.0076 -169.305
lfemur -37.1271 12.1824 -10.5408
ltibia 56.9862 -0 0
lfoot -16.2355 14.8139 -1.64122
ltoes 25.1884 -0 0
rfemur -19.316 -19.5715 16.9966
rtibia 63.6821 -0 0
rfoot -9.11701 -32.1003 1.17736
rtoes -5.77934 0 0
lowerback 2.3691 3.30779 -1.55377
upperback -1.17076 4.33448 -3.42943
thorax -2.32829 2.17352 -2.72443
lowerneck -5.65211 -6.90083 -1.44246
upperneck -2.23004 -9.06786 5.59747
head 0.597972 -4.45544 1.76778
lclavicle -9.1662e-15 -1.51856e-14 6.0301e-32
lhumerus -43.795 -20.8268 76.331
lradius 64.0713 -0 0
lwrist 14.1903 0 0
lhand -20.2357 -5.55877 -0.011342
lfingers 7.12502 -0 0
lthumb 6.11226 24.331 -0.0111477
rclavicle -9.1662e-15 -1.51856e-14 6.0301e-32
rhumerus -14.3016 38.4155 -82.1668
rradius 85.0957 -0 0
rwrist 2.46661 0 0
rhand -23.6517 -23.5732 0.130094
rfingers 7.12502 -0 0
rthumb 2.81363 -53.5232 0.125954
